<svg xmlns="http://www.w3.org/2000/svg" width="128" height="128" viewBox="0 0 33.867 33.867" id="youtube"><path fill="#00a1ff" d="M6.35 3.704h21.167a5.28 5.28 0 0 1 5.291 5.292V24.87a5.28 5.28 0 0 1-5.291 5.292H6.35a5.28 5.28 0 0 1-5.292-5.292V8.996A5.28 5.28 0 0 1 6.35 3.704z" paint-order="fill markers stroke"></path><path fill="#fff" d="M13.315 21.222c-1.115-.587-1.113-3.646-1.12-4.831-.009-1.186-.053-4.245 1.054-4.844 1.107-.6 3.972.931 5.087 1.518 1.115.586 4.002 2.08 4.01 3.266.008 1.186-2.858 2.714-3.965 3.313-1.107.6-3.95 2.164-5.066 1.578z" paint-order="fill markers stroke"></path><path fill="#06f" d="M1.058 18.97v5.9a5.28 5.28 0 0 0 5.292 5.292h21.166a5.28 5.28 0 0 0 5.292-5.291V18.97a26.566 19.925 0 0 1-15.875 3.948A26.566 19.925 0 0 1 1.058 18.97z" paint-order="fill markers stroke"></path></svg>